<svg xmlns="http://www.w3.org/2000/svg" width="1248" height="22" viewBox="0 0 1248 22">
  <g id="Group_1" data-name="Group 1" transform="translate(-16 -14)">
    <g id="Icons" transform="translate(1196.184 18)">
      <g id="Tab_Overview" data-name="Tab Overview" transform="translate(54.816 0.001)">
        <path id="Rechteck_1" data-name="Rechteck 1" d="M5,6H1A1,1,0,0,1,0,5V1A1,1,0,0,1,1,0H5A1,1,0,0,1,6,1V5A1,1,0,0,1,5,6ZM1,1V5H5V1Z" fill="#b6b4b8"/>
        <path id="Rechteck_2" data-name="Rechteck 2" d="M5,6H1A1,1,0,0,1,0,5V1A1,1,0,0,1,1,0H5A1,1,0,0,1,6,1V5A1,1,0,0,1,5,6ZM1,1V5H5V1Z" transform="translate(7)" fill="#b6b4b8"/>
        <path id="Rechteck_3" data-name="Rechteck 3" d="M5,6H1A1,1,0,0,1,0,5V1A1,1,0,0,1,1,0H5A1,1,0,0,1,6,1V5A1,1,0,0,1,5,6ZM1,1V5H5V1Z" transform="translate(7 7)" fill="#b6b4b8"/>
        <path id="Rechteck_4" data-name="Rechteck 4" d="M5,6H1A1,1,0,0,1,0,5V1A1,1,0,0,1,1,0H5A1,1,0,0,1,6,1V5A1,1,0,0,1,5,6ZM1,1V5H5V1Z" transform="translate(0 7)" fill="#b6b4b8"/>
      </g>
      <g id="New_Tab" data-name="New Tab" transform="translate(27.821 1.037)">
        <path id="Pfad_1" data-name="Pfad 1" d="M0,0V11.548" transform="translate(5.773)" fill="none" stroke="#b6b4b8" stroke-linecap="round" stroke-miterlimit="10" stroke-width="1.2"/>
        <path id="Pfad_2" data-name="Pfad 2" d="M0,0V11.548" transform="translate(11.545 5.773) rotate(90)" fill="none" stroke="#b6b4b8" stroke-linecap="round" stroke-miterlimit="10" stroke-width="1.2"/>
      </g>
      <g id="Share">
        <path id="Pfad_5" data-name="Pfad 5" d="M0,8.242V0" transform="translate(5.61 0)" fill="none" stroke="#b6b4b8" stroke-linecap="round" stroke-linejoin="round" stroke-miterlimit="10" stroke-width="1"/>
        <path id="Pfad_6" data-name="Pfad 6" d="M0,2.065,2.061,0l2.06,2.065" transform="translate(3.548)" fill="none" stroke="#b6b4b8" stroke-linecap="round" stroke-linejoin="round" stroke-miterlimit="10" stroke-width="1"/>
        <path id="Pfad_8" data-name="Pfad 8" d="M9.724,0H8.114V1h1.61a.5.5,0,0,1,.5.5v7.25a.5.5,0,0,1-.5.5H1.5a.5.5,0,0,1-.5-.5V1.5A.5.5,0,0,1,1.5,1h1.61V0H1.5A1.5,1.5,0,0,0,0,1.5v7.25a1.5,1.5,0,0,0,1.5,1.5h8.22a1.5,1.5,0,0,0,1.5-1.5V1.5A1.5,1.5,0,0,0,9.724,0Z" transform="translate(0 3.623)" fill="#b6b4b8"/>
      </g>
    </g>
    <g id="URL_Bar" data-name="URL Bar" transform="translate(381 14)">
      <g id="Search_Field" data-name="Search Field" fill="none" stroke-miterlimit="10">
        <path d="M6,22a6,6,0,0,1-6-6V6A6,6,0,0,1,6,0H513a6,6,0,0,1,6,6V16a6,6,0,0,1-6,6Z" stroke="none"/>
        <path d="M 513 21 C 515.7570190429688 21 518 18.75699996948242 518 16 L 518 6 C 518 3.243000030517578 515.7570190429688 1 513 1 L 6 1 C 3.243000030517578 1 1 3.243000030517578 1 6 L 1 16 C 1 18.75699996948242 3.243000030517578 21 6 21 L 513 21 M 513 22 L 6 22 C 2.686266660690308 22 0 19.31373405456543 0 16 L 0 6 C 0 2.686266660690308 2.686266660690308 0 6 0 L 513 0 C 516.313720703125 0 519 2.686266660690308 519 6 L 519 16 C 519 19.31373405456543 516.313720703125 22 513 22 Z" stroke="none" fill="#707070"/>
      </g>
      <g id="Url" transform="translate(216 7)">
        <path id="https:_" data-name="https://" d="M11.905,8.634H11.1V1.98h.763v.81h.019A1.845,1.845,0,0,1,13.5,1.934c1.278,0,2.137,1.021,2.137,2.54s-.851,2.541-2.119,2.541a1.749,1.749,0,0,1-1.592-.856h-.018V8.633Zm1.444-5.982c-.866,0-1.448.732-1.448,1.822S12.483,6.3,13.349,6.3c.888,0,1.462-.716,1.462-1.823C14.81,3.384,14.223,2.651,13.349,2.651ZM26.3,8.491h-.675l2.04-8.2h.689L26.3,8.49Zm-2.73,0h-.675l2.04-8.2h.689l-2.055,8.2ZM21.691,7.015a.522.522,0,0,1-.527-.527.527.527,0,1,1,.527.527Zm-3.5,0a1.738,1.738,0,0,1-1.93-1.448h.81c.084.511.49.781,1.175.781s1.106-.28,1.106-.731c0-.351-.211-.537-.778-.685L17.7,4.705c-.875-.227-1.3-.663-1.3-1.332,0-.845.759-1.435,1.846-1.435a1.638,1.638,0,0,1,1.814,1.425h-.772c-.051-.468-.461-.759-1.069-.759s-1.027.292-1.027.727c0,.339.267.564.842.707l.76.19c1.011.255,1.369.6,1.369,1.332C20.159,6.417,19.349,7.015,18.188,7.015ZM9.684,7c-.9,0-1.254-.373-1.254-1.332V2.647H7.736V1.98H8.43V.856h.8V1.98h.972v.667H9.235V5.64c0,.461.191.666.62.666a3.159,3.159,0,0,0,.347-.023v.68A2.854,2.854,0,0,1,9.684,7ZM6.751,7C5.848,7,5.5,6.631,5.5,5.673V2.647H4.8V1.98H5.5V.856H6.3V1.98h.972v.667H6.3V5.64c0,.461.191.666.62.666a3.115,3.115,0,0,0,.346-.023v.68A2.882,2.882,0,0,1,6.751,7ZM.806,6.969H0V0H.806V2.79H.824a1.647,1.647,0,0,1,1.582-.856,1.692,1.692,0,0,1,1.759,1.85V6.967H3.359V3.928A1.116,1.116,0,0,0,2.165,2.651,1.317,1.317,0,0,0,.806,4.1V6.968Zm20.885-3.36a.522.522,0,0,1-.527-.527.527.527,0,1,1,.527.527Z" transform="translate(10.933 0)" fill="#fff"/>
        <path id="Icon_lock" data-name="Icon lock" d="M4.422,6.949H.632A.633.633,0,0,1,0,6.317V3.159a.633.633,0,0,1,.632-.632V1.9a1.895,1.895,0,1,1,3.79,0v.632a.633.633,0,0,1,.632.632V6.317A.633.633,0,0,1,4.422,6.949ZM2.527.632A1.265,1.265,0,0,0,1.264,1.9v.632H3.79V1.9A1.265,1.265,0,0,0,2.527.632Z" transform="translate(0 0.019)" fill="#fff"/>
      </g>
      <path id="Refresh" d="M4.065,9.477A4.074,4.074,0,0,1,0,5.427,3.988,3.988,0,0,1,1.167,2.588,4.04,4.04,0,0,1,3.992,1.375a.033.033,0,0,0,.032-.033V.384A.386.386,0,0,1,4.616.059L6.63,1.451a.387.387,0,0,1,.12.532.392.392,0,0,1-.12.12L4.617,3.509a.385.385,0,0,1-.594-.324V2.132A.034.034,0,0,0,3.992,2.1a3.319,3.319,0,0,0-2.312,1A3.282,3.282,0,0,0,.726,5.423,3.36,3.36,0,0,0,4.079,8.758H4.1A3.342,3.342,0,0,0,6.35,7.873,3.3,3.3,0,0,0,7.414,5.706a.364.364,0,0,1,.36-.329l.036,0a.357.357,0,0,1,.327.389A4.016,4.016,0,0,1,6.841,8.4,4.066,4.066,0,0,1,4.079,9.477Z" transform="translate(504.978 6.261)" fill="#ddddde"/>
    </g>
    <g id="Browser_Navigation" data-name="Browser Navigation" transform="translate(16 18)">
      <g id="Window_controls" data-name="Window controls" transform="translate(0 2.668)">
        <path id="Close" d="M0,4.5A4.5,4.5,0,1,1,4.5,9,4.5,4.5,0,0,1,0,4.5Z" fill="#ff5f57"/>
        <path id="Minimize" d="M0,4.5A4.5,4.5,0,1,1,4.5,9,4.5,4.5,0,0,1,0,4.5Z" transform="translate(15)" fill="#ffbd2e"/>
        <path id="Maximize" d="M0,4.5A4.5,4.5,0,1,1,4.5,9,4.5,4.5,0,0,1,0,4.5Z" transform="translate(31)" fill="#27c940"/>
      </g>
      <path id="Back" d="M4.859,9.72,0,4.858,4.859,0" transform="translate(109.887 1.935)" fill="none" stroke="#b7b3ba" stroke-linecap="round" stroke-linejoin="round" stroke-miterlimit="10" stroke-width="1"/>
      <path id="Forward" d="M4.86,9.72,0,4.858,4.86,0" transform="translate(142.748 11.658) rotate(-180)" fill="none" stroke="#5b585d" stroke-linecap="round" stroke-linejoin="round" stroke-miterlimit="10" stroke-width="1"/>
      <path id="Pfad_12" data-name="Pfad 12" d="M0,0,2.2,2.2,4.408,0" transform="translate(84.79 5.935)" fill="none" stroke="#e0dee3" stroke-linecap="round" stroke-linejoin="round" stroke-miterlimit="10" stroke-width="1"/>
      <path id="Pfad_13" data-name="Pfad 13" d="M0,0V13.6" transform="translate(79.693)" fill="none" stroke="#4b4b4b" stroke-miterlimit="10" stroke-width="1"/>
      <g id="Gruppe_11" data-name="Gruppe 11" transform="translate(59 1.668)">
        <g id="Rechteck_5" data-name="Rechteck 5" fill="none" stroke-miterlimit="10">
          <path d="M2,11A2,2,0,0,1,0,9V2A2,2,0,0,1,2,0H14a2,2,0,0,1,2,2V9a2,2,0,0,1-2,2Z" stroke="none"/>
          <path d="M 14 9.997559547424316 C 14.55140018463135 9.997559547424316 15 9.548959732055664 15 8.997559547424316 L 15 1.997559547424316 C 15 1.446159601211548 14.55140018463135 0.9975595474243164 14 0.9975595474243164 L 2 0.9975595474243164 C 1.448600053787231 0.9975595474243164 1 1.446159601211548 1 1.997559547424316 L 1 8.997559547424316 C 1 9.548959732055664 1.448600053787231 9.997559547424316 2 9.997559547424316 L 14 9.997559547424316 M 14 10.99755954742432 L 2 10.99755954742432 C 0.8954300284385681 10.99755954742432 0 10.10212993621826 0 8.997559547424316 L 0 1.997559547424316 C 0 0.8929895758628845 0.8954300284385681 -0.002440452575683594 2 -0.002440452575683594 L 14 -0.002440452575683594 C 15.10457038879395 -0.002440452575683594 16 0.8929895758628845 16 1.997559547424316 L 16 8.997559547424316 C 16 10.10212993621826 15.10457038879395 10.99755954742432 14 10.99755954742432 Z" stroke="none" fill="#b5b4b9"/>
        </g>
        <path id="Pfad_14" data-name="Pfad 14" d="M0,0V9.677" transform="translate(5.945 1)" fill="none" stroke="#b7b3ba" stroke-miterlimit="10" stroke-width="1"/>
      </g>
      <path id="Privacy_Report" data-name="Privacy Report" d="M5.36,12.955h0a.754.754,0,0,1-.2-.034,1.407,1.407,0,0,1-.239-.095c-.909-.508-1.685-.965-2.306-1.356A9.391,9.391,0,0,1,1.1,10.315,3.515,3.515,0,0,1,.26,9.106,4.074,4.074,0,0,1,0,7.588V2.734A1.171,1.171,0,0,1,.223,1.94a1.825,1.825,0,0,1,.668-.428c.177-.073.432-.173.8-.314S2.45.915,2.825.777c.417-.153.786-.286,1.13-.4.36-.125.618-.211.79-.264L5.053.037A1.364,1.364,0,0,1,5.359,0a1.66,1.66,0,0,1,.311.031,2.242,2.242,0,0,1,.3.077l.793.28L7.9.79c.428.152.8.287,1.134.411s.617.233.8.311a1.923,1.923,0,0,1,.661.432,1.156,1.156,0,0,1,.223.79V7.588a4.155,4.155,0,0,1-.257,1.522,3.493,3.493,0,0,1-.831,1.211,9.226,9.226,0,0,1-1.515,1.155c-.627.4-1.405.85-2.312,1.35a1.685,1.685,0,0,1-.243.095.729.729,0,0,1-.2.034ZM5.367.378.432,2.241.426,8.175.9,9.444l4.462,2.8v-.56a.5.5,0,0,0,.152-.031,1.4,1.4,0,0,0,.22-.112C6.5,11.08,7.1,10.707,7.574,10.4a7.665,7.665,0,0,0,1.188-.9A2.58,2.58,0,0,0,9.4,8.57a3.443,3.443,0,0,0,.192-1.219V2.93a.586.586,0,0,0-.041-.246.286.286,0,0,0-.175-.132c-.187-.064-.408-.142-.675-.239-.246-.091-.506-.184-.793-.287l-.415-.148-.415-.148c-.3-.106-.552-.2-.779-.287s-.455-.174-.635-.246A1.6,1.6,0,0,0,5.5,1.144a.653.653,0,0,0-.129-.016ZM5.36,11.686a.459.459,0,0,1-.152-.031,1.588,1.588,0,0,1-.227-.112c-.725-.44-1.345-.826-1.842-1.148a7.993,7.993,0,0,1-1.185-.9,2.582,2.582,0,0,1-.635-.928,3.429,3.429,0,0,1-.192-1.212V2.93a.535.535,0,0,1,.043-.243.338.338,0,0,1,.179-.135c.2-.079.418-.164.662-.253s.492-.179.8-.287l.831-.3q.412-.148.783-.28c.261-.093.47-.171.641-.239.061-.022.117-.039.166-.051a.6.6,0,0,1,.132-.016h.005V11.686H5.36Z" transform="translate(342.467 0.19)" fill="#b7b4b9"/>
    </g>
  </g>
</svg>
